<svg width="48" height="32" viewBox="0 0 48 32" fill="none" xmlns="http://www.w3.org/2000/svg">
<path d="M16.387 9.37877C16.8657 9.0078 25.9556 5.70391 30.3125 4.11126C30.4991 4.04303 30.7057 4.09277 30.843 4.23645L31.8259 5.26504C31.9605 5.40595 32.1648 5.45578 32.3492 5.39269L34.3248 4.71682C34.5126 4.65257 34.7203 4.70513 34.8547 4.85123C35.9424 6.03391 37.8878 8.13723 38.4467 8.69614C39.1956 9.44507 39.1956 9.98974 38.3786 10.5344C37.5702 11.0734 36.5618 9.81256 36.013 9.12638L35.9956 9.10465C35.451 8.4238 34.9744 8.08338 34.2935 8.4238C33.6127 8.76422 28.3021 10.1259 26.6681 10.6706C25.0453 11.2115 25.1013 11.7524 25.3022 13.6938L25.3064 13.7344C25.5106 15.7088 30.617 16.8663 32.4552 17.4109C34.2935 17.9556 33.5446 19.045 33.2723 20.2024C32.9999 21.3599 35.7233 22.5173 36.268 22.7216C36.6433 22.8623 37.3149 23.5182 37.726 23.9585C37.8378 24.0782 37.88 24.2461 37.8358 24.4037C37.6319 25.1306 37.1879 26.3435 36.6084 26.8747C35.7914 27.6236 34.0212 27.2832 31.7744 26.33C29.5276 25.3769 26.9404 21.1556 25.7149 19.6578C24.7681 18.5006 21.6287 17.7159 20.0246 17.4386C19.9174 17.42 19.8076 17.4385 19.7114 17.4894L15.2757 19.8378C15.2452 19.8539 15.2132 19.8668 15.1801 19.8763L11.1647 21.0323C10.9206 21.1026 10.6625 20.9786 10.5648 20.7441L10.2807 20.0623C10.1625 19.7785 9.81852 19.6677 9.5568 19.829L1.55733 24.761C1.38933 24.8646 1.18876 24.688 1.27018 24.5082L2.61342 21.5422C2.62732 21.5115 2.6443 21.4823 2.66408 21.455L4.57722 18.8162C4.5982 18.7872 4.62144 18.7613 4.64806 18.7375C5.72851 17.7702 7.8801 15.7703 8.14914 15.2322C8.48956 14.5514 8.96581 13.6663 10.3275 13.5301C11.6892 13.394 12.7787 12.0323 13.3234 11.6919C13.8681 11.3514 15.7744 9.85358 16.387 9.37877Z" stroke="#FF1800"/>
</svg>
