<svg width="48" height="32" viewBox="0 0 48 32" fill="none" xmlns="http://www.w3.org/2000/svg">
<path d="M35.9209 25.8602L38.603 26.7989C38.797 26.8668 39 26.7228 39 26.5172C39 26.3987 38.9301 26.2916 38.8217 26.2434C37.9306 25.8474 36.2246 25.0493 35.3051 24.4746C34.3861 23.9002 31.7884 20.5133 30.3604 18.561C30.1767 18.3099 30.123 17.9877 30.2124 17.6897L30.3781 17.1376C30.4745 16.8162 30.4037 16.4677 30.1862 16.2121C29.2615 15.1254 27.5288 13.1574 25.9138 11.5424C24.2745 9.90309 21.8676 8.78906 20.5213 8.30785C20.2337 8.20502 19.9171 8.25677 19.6659 8.43067L18.651 9.13326C18.2989 9.37702 17.8307 9.36953 17.4866 9.11463L14.2849 6.743C14.0446 6.565 13.7372 6.50388 13.4471 6.57641L11.5615 7.04782C11.4822 7.06765 11.4007 7.07768 11.319 7.07768H9.13081C8.83888 7.07768 8.56153 6.95011 8.37155 6.72847L8.12826 6.44463C7.89288 6.17002 7.52755 6.04391 7.17289 6.11484L5.43782 6.46186C4.15486 6.82108 1.49658 7.6627 1.12708 8.15536C0.915488 8.43749 0.996731 8.8004 1.16263 9.11687C1.36248 9.4981 1.84863 9.56507 2.23362 9.37258L2.51291 9.23293C2.88364 9.04756 3.3303 9.11012 3.63585 9.3902L6.70367 12.2024C6.78298 12.2751 6.8735 12.3345 6.97175 12.3784L15.063 15.9905C15.3074 16.0996 15.4978 16.302 15.5917 16.5526L15.7755 17.0426C15.8601 17.2683 16.0235 17.4559 16.2355 17.5707L19.6017 19.3941L26.2217 22.6271L30.4619 24.4444C30.5089 24.4645 30.5573 24.481 30.6068 24.4937L35.9209 25.8602Z" stroke="#FF1800"/>
</svg>
