<svg width="48" height="32" viewBox="0 0 48 32" fill="none" xmlns="http://www.w3.org/2000/svg">
<path d="M29.7306 5.15428C30.7516 4.579 33.3323 3.56983 34.6056 3.03659C34.6622 3.01286 34.7239 2.99904 34.7853 3.00047C36.2597 3.03472 35.1896 5.07151 34.3848 6.21077C34.3294 6.28918 34.2961 6.38098 34.2905 6.47681L34.2499 7.16658C34.2399 7.33665 34.3164 7.50137 34.4605 7.59223C34.7331 7.76408 35.1073 7.96162 35.3433 7.96162C35.6404 7.96162 35.8827 7.179 35.9812 6.72706C35.9914 6.68007 35.9939 6.63212 35.9887 6.58431C35.9589 6.31194 35.8776 5.77915 35.7349 5.35107C35.5996 4.94527 35.9738 4.67251 36.2606 4.5496C36.3422 4.51463 36.4331 4.51336 36.5195 4.5337L37.4485 4.75228C37.4808 4.75987 37.5121 4.77054 37.5421 4.78454C38.0761 5.03328 39.0488 5.55418 38.9981 5.80791C38.9328 6.13423 38.2802 7.11319 37.3012 8.15741C36.3223 9.20162 33.3202 12.5953 30.9054 13.9006C28.4906 15.2059 23.8569 14.6185 22.6822 14.4227C21.816 14.2784 20.5508 13.7903 19.898 13.5103C19.7983 13.4676 19.6882 13.4569 19.5825 13.4813L18.1967 13.8011C18.1001 13.8234 17.999 13.8165 17.9063 13.7812L16.7177 13.3284C16.6912 13.3183 16.6664 13.3064 16.642 13.292C15.6708 12.7189 13.6831 11.5753 13.2189 11.4206C12.6316 11.2248 9.04208 10.4416 8.4547 10.4416C7.86733 10.4416 5.84416 13.1174 5.51784 13.7048C5.30442 14.089 5.77436 14.7028 6.17881 15.1043C6.32564 15.25 6.38713 15.4647 6.32012 15.6604C5.88169 16.9408 5.15674 19.1172 5.06099 19.6438C4.96824 20.1539 4.18208 20.4959 3.67212 20.6422C3.55818 20.6748 3.45456 20.7393 3.39023 20.8389C3.25911 21.0418 3.10308 21.3346 3.10308 21.5365C3.10308 21.8628 2.97256 23.5596 3.16835 24.6038C3.36414 25.6481 3.36414 25.9744 4.21257 26.1049C5.06099 26.2354 4.8652 27.0186 4.93047 27.6712C4.99573 28.3239 3.49467 28.1933 2.38518 27.7365C1.2757 27.2797 1.21044 26.627 1.40623 25.9744C1.60202 25.3217 1.14494 23.8207 1.01441 22.5807C0.883887 21.3407 1.66729 19.0564 2.25466 17.947C2.84203 16.8375 3.16831 14.5532 3.49463 13.4438C3.82094 12.3343 5.58297 10.6374 5.90929 10.2458C6.23561 9.85426 6.69227 9.39742 6.8228 8.67952C6.95333 7.96162 7.86718 8.28793 8.58508 8.87531C9.30298 9.46268 12.2399 9.52794 14.1326 10.2458C16.0252 10.9637 16.0905 11.0943 17.3305 11.2248C18.5705 11.3553 19.8104 11.2248 21.442 11.5511C23.0736 11.8774 24.8359 13.3785 27.0549 12.2038C29.2739 11.029 28.2295 9.65847 27.8379 8.02688C27.4463 6.39529 28.6863 5.74265 29.7306 5.15428Z" stroke="#FF1800"/>
</svg>
