<svg width="48" height="32" viewBox="0 0 48 32" fill="none" xmlns="http://www.w3.org/2000/svg">
<path d="M37.9515 7.45315L39 18.6727C39 19.2517 38.9566 20.5292 38.7829 21.007C38.5658 21.6041 37.5343 22.7441 37.1543 22.9612C36.7743 23.1784 30.26 22.4184 29.9343 22.2012C29.6086 21.9841 29.5 20.7898 29.2286 20.4098C28.9572 20.0298 26.08 19.9212 25.7 20.1384C25.32 20.3555 24.94 21.9298 24.3429 22.0384C23.7458 22.147 19.8915 21.4412 19.5115 21.007C19.2796 20.742 19.2646 20.0181 19.3026 19.4566C19.3202 19.1968 19.1531 18.955 18.8991 18.8976C18.1685 18.7326 17.1074 18.4876 16.58 18.347C15.8312 18.1473 12.6493 15.2391 11.9314 14.7727C11.851 14.7205 11.7598 14.7344 11.6873 14.7972C10.1934 16.0906 8.48462 23.7947 8.22004 24.5355C7.94861 25.2955 7.51432 27.847 7.13432 27.087C6.75432 26.327 5.07147 25.2412 4.31147 24.5355C3.55147 23.8298 3.93147 22.2012 3.93147 21.6584C3.93147 21.2785 3.2667 21.1478 2.80952 21.1211C2.69275 21.1142 2.5794 21.0745 2.48954 20.9996L1.33631 20.0386C1.1438 19.8782 1.09887 19.6015 1.23238 19.3894C2.7443 16.9878 5.44743 12.6812 5.77718 12.1041C6.21147 11.3441 7.46004 10.0955 8.22004 10.2041C8.74722 10.2794 10.0063 11.8294 10.8861 12.9361C11.0808 13.181 11.4492 13.1887 11.6541 12.9523L14.504 9.66394C14.6672 9.4756 14.943 9.43542 15.1522 9.57086C17.4092 11.032 21.4594 13.6604 22.1172 14.1127C22.7871 14.5732 27.9675 14.9026 28.339 14.9257C28.3543 14.9266 28.366 14.9279 28.3811 14.9302C28.7668 14.9885 34.317 15.8148 34.82 15.1441C35.4715 14.2755 34.4943 10.8555 33.8972 9.06411C33.3 7.27268 34.06 5.37268 34.3315 5.04696C34.6029 4.72125 35.6343 6.18696 36.2315 6.45839C36.5637 6.60938 37.1011 6.83551 37.5261 6.96413C37.7497 7.03177 37.9298 7.22061 37.9515 7.45315Z" stroke="#FF1800"/>
</svg>
