<svg width="48" height="32" viewBox="0 0 48 32" fill="none" xmlns="http://www.w3.org/2000/svg">
<path d="M16.7112 4.00025L38.3536 4.09996C38.4571 4.10043 38.5599 4.13245 38.6405 4.19743C39.897 5.21039 37.5836 5.46825 35.9478 5.4747C35.7246 5.47558 35.5259 5.61882 35.4602 5.8322L35.2268 6.59101C35.1957 6.69201 35.1345 6.78035 35.0485 6.84165C34.1684 7.46841 32.047 8.70017 29.5898 9.29585C26.354 10.0803 26.452 9.59002 25.0792 10.5706C24.0562 11.3013 23.6912 13.9041 23.6196 15.3667C23.6105 15.553 23.5033 15.721 23.3358 15.8031L19.0428 17.9075C18.8003 18.0264 18.5072 17.9312 18.3808 17.6925L12.6533 6.87382C12.5283 6.63785 12.2401 6.54166 11.9985 6.65535L10.8588 7.19166C10.7957 7.22135 10.7396 7.26391 10.6939 7.3166L8.4394 9.91793C8.30351 10.0747 8.27858 10.2992 8.37675 10.482L11.0278 15.4185C11.0474 15.4549 11.0624 15.4936 11.0724 15.5338L11.348 16.636C11.4067 16.871 11.2885 17.1144 11.0674 17.2135L8.98092 18.1488C8.763 18.2465 8.50642 18.1765 8.36838 17.9816L7.18693 16.3137C7.04428 16.1123 6.77627 16.0446 6.55758 16.1589C5.71779 16.598 4.49319 17.2944 4.29148 17.6306C3.99732 18.1208 3.40898 20.5722 3.50704 21.1606C3.57886 21.5915 5.19046 24.6855 6.18957 26.5595C6.32837 26.8199 6.21327 27.1426 5.9412 27.2567L3.82518 28.1441C3.58875 28.2432 3.31768 28.1453 3.16293 27.9408C2.91579 27.6144 2.5643 27.2827 2.23232 27.3381C1.64399 27.4361 1.34951 27.9264 1.05534 26.6517C0.761177 25.3769 1.64382 19.1994 3.60493 13.7083C5.04389 9.67926 7.52769 7.3219 8.8623 6.45472C9.05383 6.33027 9.15532 6.10114 9.09991 5.87955L8.87145 4.96607C8.78878 4.63554 9.05367 4.32095 9.39344 4.34612L13.9163 4.68113C13.9709 4.68518 14.0258 4.68022 14.0789 4.66646L16.5832 4.01629C16.625 4.00544 16.668 4.00005 16.7112 4.00025Z" stroke="#FF1800"/>
</svg>
