<svg width="48" height="32" viewBox="0 0 48 32" fill="none" xmlns="http://www.w3.org/2000/svg">
<path d="M27.0738 7.02492L36.3985 4.14133C36.6542 4.06227 36.9268 4.19852 37.017 4.45047L38.8262 9.50363C38.9212 9.76911 38.778 10.0606 38.5098 10.1477L19.0175 16.4774C18.9824 16.4887 18.9487 16.504 18.917 16.5228L13.1055 19.9666C13.0213 20.0165 12.9536 20.09 12.9107 20.1781L11.6959 22.6752C11.6628 22.7432 11.6147 22.8028 11.5552 22.8496L8.63488 25.1441C8.57288 25.1929 8.52328 25.2555 8.49013 25.3271L7.36603 27.7528C7.24244 28.0195 6.91653 28.1225 6.66206 27.9754L1.43287 24.9512C1.19373 24.8129 1.11207 24.5069 1.2505 24.2678L1.73517 23.4308C1.78598 23.3431 1.80891 23.2419 1.80093 23.1409L1.60153 20.6166C1.5948 20.5314 1.61002 20.446 1.64573 20.3683L3.20198 16.9852C3.25924 16.8607 3.36508 16.7652 3.49477 16.7209L9.0992 14.8088C9.36183 14.7192 9.64719 14.8606 9.73497 15.1238L9.77877 15.2552C9.79127 15.2927 9.80816 15.3285 9.82909 15.362L10.0412 15.7014C10.1209 15.829 10.2539 15.9139 10.4032 15.9325L10.6571 15.9643C10.7241 15.9727 10.7887 15.9945 10.847 16.0285L11.4731 16.3937C11.584 16.4584 11.6657 16.5633 11.7014 16.6866L12.2342 18.5268C12.3376 18.8838 12.7805 19.0072 13.0536 18.7551L13.35 18.4816C13.3964 18.4387 13.4506 18.405 13.5096 18.3823L14.3373 18.0639C14.3666 18.0527 14.3947 18.0387 14.4213 18.0222L17.9304 15.8464C18.0257 15.7873 18.0984 15.6979 18.1368 15.5925L18.3108 15.1142C18.3513 15.003 18.4299 14.9097 18.5326 14.851L20.9283 13.482C20.95 13.4696 20.9726 13.4588 20.9959 13.4498L27.3864 10.9761C27.6375 10.8789 27.7666 10.6003 27.6783 10.3459L26.7491 7.66643C26.6564 7.39925 26.8036 7.10846 27.0738 7.02492Z" stroke="#FF1800"/>
</svg>
