<svg width="48" height="32" viewBox="0 0 48 32" fill="none" xmlns="http://www.w3.org/2000/svg">
<path d="M37.0164 28.0892L38.5533 27.5685C39.1501 27.3663 39.4159 26.6737 39.0991 26.129C35.0482 19.165 27.3776 6.66171 26.4537 6.11221C24.5206 4.96239 23.5522 8.68485 22.5522 10.1848C21.5522 11.6848 22.5344 13.8545 23.7172 15.1663C24.4659 15.9966 27.1591 16.1122 28.1591 17.1122C29.8732 18.8263 30.6512 22.112 28.4126 22.112H16.1158C12.6158 22.112 7.48136 22.1856 6.98136 21.6858C6.48136 21.1861 7.2305 20.8439 8.05683 19.6962C8.70211 18.8 10.4946 19.1226 12.7424 19.3999C14.7424 19.7333 19.0204 20.4272 19.8204 20.0272C20.8204 19.5272 20.3878 19.3535 16.8878 16.8535C13.3878 14.3535 14.1362 14.2469 14.4538 12.1122C14.6802 10.59 13.3567 9.94616 12.1026 9.64631C12.0041 9.62276 11.9094 9.58727 11.8223 9.53557C10.6099 8.8157 8.27597 7.08816 7.50488 5.54596C6.9315 4.39921 6.02656 4.04974 5.37578 4.00513C4.99539 3.97906 4.72693 4.30409 4.67564 4.68191L2.3431 21.8654C2.32112 22.0273 2.33915 22.1921 2.39559 22.3455L3.32128 24.8597C3.452 25.2147 3.37115 25.6131 3.11239 25.8891L1.78955 27.3001C1.49017 27.6195 1.71659 28.1421 2.15431 28.1421H36.6955C36.8046 28.1421 36.913 28.1242 37.0164 28.0892Z" stroke="#FF1800"/>
</svg>
