<svg width="48" height="32" viewBox="0 0 48 32" fill="none" xmlns="http://www.w3.org/2000/svg">
<path d="M21.3752 3.62501C21.0341 4.59965 15.5991 18.6949 12.7776 26.0058C12.6473 26.3432 12.3243 26.5623 11.9626 26.5644C9.88315 26.5762 6.64388 26.6422 4.87519 26.6875C2.43769 26.75 1.00019 28.4375 2.18769 28.4375C3.37519 28.4375 26.3752 28.375 33.2502 28.4375C40.1252 28.5 40.5627 28.75 41.8127 26.25C43.0627 23.75 39.984 22.3753 38.4377 23.0625C37.3127 23.5625 39.1877 25.75 37.7502 25.75C36.9377 25.75 24.9377 25.5625 24.1877 25.25C23.4377 24.9375 22.5304 22.41 23.1877 21.8125C23.8752 21.1875 26.3205 23.0676 28.1252 21.4375C30.0627 19.6875 28.3752 18.5625 27.1252 15.6875C25.8752 12.8125 27.8752 10.4375 29.8127 10.4375C31.1311 10.4375 37.6877 11 39.0002 10.4375C40.2403 9.90604 40.2083 9.26722 39.7502 9.00001C39.0002 8.56251 33.5002 7.18751 32.6877 7.18751C31.3752 7.18751 24.6627 8.35001 23.8127 8.25001C22.7502 8.12501 20.9377 5.93751 22.1877 5.18751C23.4377 4.43751 23.7504 6.89579 24.9377 6.50001C26.0627 6.125 26.2502 4.75 25.6252 3.62501C25.039 2.56984 21.8127 2.37501 21.3752 3.62501Z" stroke="#FF1800"/>
</svg>
