<svg width="48" height="32" viewBox="0 0 48 32" fill="none" xmlns="http://www.w3.org/2000/svg">
<path d="M37.4074 6.3894L37.8794 7.25393C38.0315 7.46338 38.3586 7.96214 38.4499 8.28167C38.564 8.68107 36.567 9.42283 35.9964 9.76517C35.4259 10.1075 33.9424 11.534 33.4859 12.3898C33.0294 13.2457 28.5789 15.9845 28.1224 16.3268C27.666 16.6692 25.8401 17.3539 25.8972 16.8974C25.9428 16.5322 25.1554 16.441 24.756 16.441C22.6829 16.536 18.2857 16.7377 17.2814 16.7833C16.5582 16.8162 15.91 16.7129 15.4901 16.6099C15.2659 16.5549 15.0218 16.6321 14.896 16.8256C14.5091 17.421 13.9713 18.3078 13.858 18.7233C13.6868 19.3509 14.885 22.2038 14.9421 22.9456C14.9991 23.6873 14.3144 25.399 13.858 25.8555C13.4015 26.312 10.7768 26.312 9.63567 25.8555C8.49451 25.399 4.55737 26.5402 2.73151 26.8255C0.90566 27.1108 0.962815 26.2549 1.01987 25.8555C1.07693 25.4561 4.7857 22.6032 5.12804 22.1467C5.47039 21.6903 4.67183 20.8344 4.67183 20.3779C4.67183 19.9215 7.01109 13.7022 7.52461 12.6181C8.03813 11.534 8.95119 11.3057 9.29354 11.0775C9.51667 10.9288 9.85586 10.6689 10.0767 10.4954C10.1611 10.4291 10.2207 10.3368 10.2494 10.2333C10.3582 9.84148 10.5435 9.23932 10.6626 9.08048C10.8338 8.85225 16.3683 8.11049 17.7377 7.99638C18.8223 7.90599 22.2337 8.55386 23.852 8.89899C23.8848 8.906 23.9159 8.90946 23.9495 8.90977C25.9085 8.9276 29.9324 8.8838 30.7471 8.56696C31.5107 8.26999 34.8636 6.93183 36.7838 6.16434C37.0188 6.0704 37.2861 6.16724 37.4074 6.3894Z" stroke="#FF1800"/>
</svg>
