<svg width="48" height="32" viewBox="0 0 48 32" fill="none" xmlns="http://www.w3.org/2000/svg">
<path d="M7.31255 21.4349C9.1018 21.4349 19.8126 21.4376 29.9376 21.5001C31.0579 21.507 34.5789 21.5001 35.8126 21.5001C38.6251 21.5001 38.8126 19.3126 38.8126 18.6251C38.8126 17.9376 39.0501 14.2501 38.5626 13.4376C37.8126 12.1876 36.8751 12.1876 35.4376 11.6876C33.159 10.895 32.1734 10.6436 31.5001 12.3751C30.8267 14.1065 34.4854 14.3746 35.0626 15.6251C35.6397 16.8756 35.4826 18.4676 34.2501 18.2501C33.1876 18.0626 27.0666 14.2111 24.3126 12.3751C21.3126 10.3751 19.9376 10.6876 18.9335 12.008C18.2324 12.9301 16.6251 15.3126 15.9376 16.4376C15.411 17.2991 16.5626 19.1876 14.4376 19.1876C13.3034 19.1876 11.7597 19.3126 10.7501 19.0001C9.30161 18.5518 7.62506 17.2501 6.56256 16.5626C4.87506 15.4707 5.50006 14.3126 6.43756 14.3126H11.1251C12.7501 14.3126 14.1876 13.3751 14.1876 12C14.1876 11.0626 13.6876 10.3126 12.3751 10.3125H6.43758C2.43756 10.3125 0.986582 13.1642 1.18758 14.8125C1.50005 17.375 4.38369 17.2437 5.62505 18.3125C6.68755 19.2274 5.52331 21.4349 7.31255 21.4349Z" stroke="#FF1800"/>
</svg>
