<svg width="27" height="30" viewBox="0 0 27 30" fill="none" xmlns="http://www.w3.org/2000/svg">
<path d="M13.5 12.35C14.8791 12.35 16.2018 11.7389 17.177 10.6512C18.1521 9.56351 18.7 8.08826 18.7 6.55C18.7 5.01174 18.1521 3.53649 17.177 2.44878C16.2018 1.36107 14.8791 0.75 13.5 0.75C12.1209 0.75 10.7982 1.36107 9.82304 2.44878C8.84785 3.53649 8.3 5.01174 8.3 6.55C8.3 8.08826 8.84785 9.56351 9.82304 10.6512C10.7982 11.7389 12.1209 12.35 13.5 12.35ZM5.05 16.7C5.91195 16.7 6.7386 16.3181 7.3481 15.6383C7.95759 14.9584 8.3 14.0364 8.3 13.075C8.3 12.1136 7.95759 11.1916 7.3481 10.5117C6.7386 9.83192 5.91195 9.45 5.05 9.45C4.18805 9.45 3.3614 9.83192 2.7519 10.5117C2.14241 11.1916 1.8 12.1136 1.8 13.075C1.8 14.0364 2.14241 14.9584 2.7519 15.6383C3.3614 16.3181 4.18805 16.7 5.05 16.7ZM25.2 13.075C25.2 14.0364 24.8576 14.9584 24.2481 15.6383C23.6386 16.3181 22.812 16.7 21.95 16.7C21.088 16.7 20.2614 16.3181 19.6519 15.6383C19.0424 14.9584 18.7 14.0364 18.7 13.075C18.7 12.1136 19.0424 11.1916 19.6519 10.5117C20.2614 9.83192 21.088 9.45 21.95 9.45C22.812 9.45 23.6386 9.83192 24.2481 10.5117C24.8576 11.1916 25.2 12.1136 25.2 13.075ZM13.5 13.8C15.2239 13.8 16.8772 14.5638 18.0962 15.9235C19.3152 17.2831 20 19.1272 20 21.05V29.75H7V21.05C7 19.1272 7.68482 17.2831 8.90381 15.9235C10.1228 14.5638 11.7761 13.8 13.5 13.8ZM4.4 21.05C4.4 20.0452 4.53 19.0751 4.7744 18.1587L4.5534 18.179C3.43914 18.3155 2.40926 18.9059 1.66124 19.8371C0.91322 20.7683 0.499709 21.9747 0.5 23.225V29.75H4.4V21.05ZM26.5 29.75V23.225C26.5001 21.9321 26.0579 20.6879 25.2635 19.7464C24.4692 18.8049 23.3826 18.237 22.2256 18.1587C22.4687 19.0751 22.6 20.0452 22.6 21.05V29.75H26.5Z" fill="white"/>
</svg>
