<svg width="25" height="26" viewBox="0 0 25 26" fill="none" xmlns="http://www.w3.org/2000/svg">
<path d="M19.875 19.9875C19.55 18.9875 18.6125 18.25 17.5 18.25H16.25V14.5C16.25 14.1685 16.1183 13.8505 15.8839 13.6161C15.6495 13.3817 15.3315 13.25 15 13.25H7.5V10.75H10C10.3315 10.75 10.6495 10.6183 10.8839 10.3839C11.1183 10.1495 11.25 9.83152 11.25 9.5V7H13.75C14.413 7 15.0489 6.73661 15.5178 6.26777C15.9866 5.79893 16.25 5.16304 16.25 4.5V3.9875C17.7456 4.59046 19.0728 5.54684 20.118 6.77479C21.1633 8.00274 21.8954 9.46568 22.2517 11.0384C22.608 12.6111 22.5779 14.2467 22.164 15.8053C21.7501 17.3638 20.9647 18.7988 19.875 19.9875ZM11.25 23.1625C6.3125 22.55 2.5 18.35 2.5 13.25C2.5 12.475 2.6 11.725 2.7625 11.0125L8.75 17V18.25C8.75 18.913 9.01339 19.5489 9.48223 20.0178C9.95107 20.4866 10.587 20.75 11.25 20.75M12.5 0.75C10.8585 0.75 9.23303 1.07332 7.71646 1.70151C6.19989 2.32969 4.8219 3.25043 3.66117 4.41117C1.31696 6.75537 0 9.93479 0 13.25C0 16.5652 1.31696 19.7446 3.66117 22.0888C4.8219 23.2496 6.19989 24.1703 7.71646 24.7985C9.23303 25.4267 10.8585 25.75 12.5 25.75C15.8152 25.75 18.9946 24.433 21.3388 22.0888C23.683 19.7446 25 16.5652 25 13.25C25 11.6085 24.6767 9.98303 24.0485 8.46646C23.4203 6.94989 22.4996 5.5719 21.3388 4.41117C20.1781 3.25043 18.8001 2.32969 17.2835 1.70151C15.767 1.07332 14.1415 0.75 12.5 0.75Z" fill="white"/>
</svg>
