<svg width="27" height="30" viewBox="0 0 27 30" fill="none" xmlns="http://www.w3.org/2000/svg">
<path d="M7.58467 2.07842C7.61533 1.93228 7.61451 1.78184 7.58224 1.636C7.54998 1.49017 7.48692 1.35191 7.39683 1.22943C7.30673 1.10695 7.19142 1.00274 7.05772 0.92298C6.92403 0.843216 6.77469 0.789522 6.61854 0.765081C6.46239 0.74064 6.30261 0.74595 6.14868 0.780695C5.99475 0.815439 5.8498 0.878912 5.72242 0.967351C5.59504 1.05579 5.48783 1.1674 5.40714 1.29555C5.32644 1.4237 5.27391 1.5658 5.25265 1.71341L0.522402 28.4216C0.491737 28.5677 0.492562 28.7182 0.524828 28.864C0.557095 29.0098 0.620147 29.1481 0.710246 29.2706C0.800344 29.393 0.915657 29.4973 1.04935 29.577C1.18304 29.6568 1.33238 29.7105 1.48853 29.7349C1.64468 29.7594 1.80446 29.754 1.95839 29.7193C2.11232 29.6846 2.25727 29.6211 2.38465 29.5326C2.51203 29.4442 2.61924 29.3326 2.69994 29.2045C2.78063 29.0763 2.83316 28.9342 2.85442 28.7866L4.43905 19.8394C6.34534 20.102 8.40537 20.1888 10.0278 21.2593C11.0317 21.9381 12.1925 22.3829 13.4147 22.5569C15.6994 22.8819 17.7429 21.7 19.9992 22.0361L23.0479 22.4679C23.6628 22.5569 24.3014 22.1118 24.3936 21.5331L26.4844 8.32591L26.4939 8.31701C26.5248 8.02647 26.438 7.73566 26.2507 7.50286C26.0634 7.27006 25.7895 7.11249 25.4839 7.06172L22.4353 6.62994C20.1577 6.31167 18.1095 7.46012 15.8532 7.14185C14.8412 6.99723 13.8786 6.63384 13.041 6.0802C11.2932 4.92952 9.21188 4.73811 7.16131 4.46658L7.58467 2.07842ZM6.18924 9.95288L6.96974 5.56384C8.38645 5.74635 9.88594 5.85095 11.1986 6.38512L10.5009 10.7586C9.15275 10.24 7.62961 10.1398 6.18924 9.95288ZM4.63536 18.7443L5.41585 14.3508C6.88223 14.5422 8.43611 14.6402 9.81025 15.1699L10.5198 10.7719C12.076 11.3729 13.261 12.4034 14.997 12.6437L15.7065 8.23688C17.452 8.48393 18.8971 7.84294 20.5739 7.71607L19.8644 12.0918C18.1852 12.2253 16.733 12.893 14.9922 12.6482L14.3158 17.0506C12.5751 16.8058 11.3878 15.7708 9.82444 15.1721L9.11491 19.57C7.70765 19.0381 6.12775 18.9446 4.63536 18.7443ZM14.3182 17.0528C16.0542 17.2976 17.5135 16.6255 19.1927 16.4942L19.8644 12.0918C21.4136 11.9582 22.9982 12.3388 24.519 12.5569L23.8567 16.9549C22.3336 16.739 20.7442 16.3562 19.1951 16.4942L18.4855 20.8921C16.8087 20.9989 15.3281 21.6933 13.6086 21.4485L14.3182 17.0528Z" fill="white"/>
</svg>
